<?xml version="1.0" encoding="UTF-8"?>
<svg width="24px" height="23px" viewBox="0 0 24 23" version="1.1" xmlns="http://www.w3.org/2000/svg" xmlns:xlink="http://www.w3.org/1999/xlink">
    <!-- Generator: sketchtool 52.6 (67491) - http://www.bohemiancoding.com/sketch -->
    <title>8E8EB0F6-AB29-40F1-A938-A3696A0548A4</title>
    <desc>Created with sketchtool.</desc>
    <g id="Page-1" stroke="none" stroke-width="1" fill="none" fill-rule="evenodd">
        <g id="Tasks" transform="translate(-182.000000, -793.000000)" fill-rule="nonzero">
            <g id="Group" transform="translate(182.000000, 793.000000)">
                <path d="M23.2131585,9.66741138 L18.2714169,14.5108478 L19.4379954,21.3502093 C19.5075534,21.7586674 19.3435658,22.1638434 19.0101197,22.4074574 C18.8217661,22.5454438 18.6011391,22.6153846 18.3791789,22.6153846 C18.2078355,22.6153846 18.0365381,22.5736882 17.8776535,22.4898794 L11.7693334,19.2607678 L5.66101318,22.4898794 C5.29579939,22.6829679 4.86194711,22.6514876 4.52850103,22.4074574 C4.19505496,22.1638896 4.03111332,21.7586674 4.10062531,21.3502093 L5.26720385,14.5108478 L0.325462211,9.66741138 C0.0302661196,9.37798674 -0.0738179718,8.95334936 0.0532528889,8.55922152 C0.180829459,8.16467764 0.513356063,7.88264926 0.921417192,7.82292452 L7.75097025,6.82544732 L10.8049005,0.602933312 C10.896112,0.417241132 11.0342625,0.266265114 11.2009625,0.162070397 C11.3676626,0.057875681 11.5629581,-4.61852778e-14 11.7692874,-4.61852778e-14 C12.1814861,-4.61852778e-14 12.5508375,0.231086685 12.7336743,0.602933312 L15.7876045,6.82544732 L22.6171576,7.82292452 C23.0252187,7.88264926 23.3577453,8.16467764 23.4848622,8.55922152 C23.6124847,8.95330313 23.5084006,9.37798674 23.2131585,9.66741138 Z" id="Shape" fill="#F5A623"></path>
                <path d="M23.6682988,9.66743784 L18.6296236,14.5108643 L19.8190849,21.3502119 C19.8900072,21.7586691 19.722803,22.1638443 19.3828163,22.4074579 C19.1907681,22.5454439 18.9658134,22.6153846 18.7394993,22.6153846 C18.564795,22.6153846 18.3901376,22.5736883 18.2281365,22.4898797 L12,19.2607746 L12,-4.61852778e-14 C12.4202841,-4.61852778e-14 12.7968805,0.231086212 12.9833036,0.60293208 L16.0971375,6.82543337 L23.060654,7.82290853 C23.4767193,7.88263315 23.8157685,8.16466095 23.9453788,8.55920402 C24.0754578,8.95333106 23.9693321,9.3780138 23.6682988,9.66743784 Z" id="Shape" fill="#F8E71C"></path>
            </g>
        </g>
    </g>
</svg>